<?xml version="1.0" encoding="UTF-8"?>
<svg xmlns="http://www.w3.org/2000/svg" xmlns:xlink="http://www.w3.org/1999/xlink" id="Gradient" viewBox="0 0 512 512" width="512" height="512"><defs><linearGradient id="linear-gradient" x1="256" y1="496" x2="256" y2="16" gradientUnits="userSpaceOnUse"><stop offset="0" stop-color="#12c2e9"/><stop offset="0.5" stop-color="#c471ed"/><stop offset="1" stop-color="#f64f59"/></linearGradient></defs><path d="M24,312c0,48.772,14.739,94.707,41.5,129.343C92.739,476.589,129.14,496,168,496H424a8,8,0,0,0,7.951-7.116L463.66,203.505C469.848,196.542,488,173.592,488,144c0-29.474-12.479-52.432-16.28-58.742l-7.782-62.25A8,8,0,0,0,451,17.753L414.735,46.767C396.673,40.084,369.264,40,368,40a179.851,179.851,0,0,0-46.336,7.086L285,17.753a8,8,0,0,0-12.936,5.255l-7.782,62.25C260.479,91.568,248,114.526,248,144c0,20.808,8.975,38.332,16.455,49.323-30.574,5.084-63.361,24.581-90.374,54.295C139.206,285.98,120,334.415,120,384c0,9.036.363,17.33,1.022,24.967C100.535,386.639,88,350.886,88,312c0-32.633,20.116-97.529,36.28-149.675C136.875,121.7,144,98.21,144,88A56,56,0,0,0,32,88a32.012,32.012,0,0,0,40.814,30.766C69.469,130.258,65.285,143.755,61,157.588,44.514,210.765,24,276.944,24,312ZM329.94,448H368v32H334.863ZM384,480V448H420.4l-3.555,32ZM185.919,258.382C214.171,227.305,250.22,208,280,208a8.006,8.006,0,0,0,5.669-13.645C285.453,194.137,264,172.163,264,144c0-29.025,14.52-51.355,14.656-51.562a8,8,0,0,0,1.282-3.446l6.227-49.815L315,62.247a8,8,0,0,0,7.528,1.343C344.932,56.122,367.778,56,368,56c8.375,0,32.683,1.285,44.422,7.155A8,8,0,0,0,421,62.247l28.837-23.07,6.227,49.815a8,8,0,0,0,1.282,3.446C457.49,92.657,472,114.761,472,144c0,28.163-21.453,50.137-21.657,50.343a8.009,8.009,0,0,0-2.294,4.773L422.173,432H384V280a8,8,0,0,0-16,0V432H328c-.175,0-.346.015-.517.026L303.907,278.783a8,8,0,0,0-15.814,2.434l22.576,146.744A88.069,88.069,0,0,0,246.416,400H216a8,8,0,0,0,0,16h30.416a72.2,72.2,0,0,1,70.6,57.879L318.242,480H176c-.085,0-8.911-.448-18.122-10.426C147.9,458.761,136,435.138,136,384,136,338.4,153.729,293.792,185.919,258.382ZM88,80a8,8,0,0,0-8,8v.016a19.5,19.5,0,0,1-.146,2.149A16,16,0,0,1,48,88a40,40,0,0,1,80,0c0,8.284-9.23,38.062-19,69.588C92.514,210.765,72,276.944,72,312c0,51.465,20.485,98.446,52.536,121.4,4.286,20.36,11.135,34.105,18.464,43.374C84.348,461.47,40,393.409,40,312c0-32.633,20.116-97.529,36.28-149.675,10.686-34.472,17.435-56.6,19.235-68.756A32.058,32.058,0,0,0,96,88.017V88A8,8,0,0,0,88,80Zm328,72c25.312,0,32-26.165,32-40a8,8,0,0,0-8-8H392a8,8,0,0,0-8,8,59.643,59.643,0,0,0,3.509,18.809C392.634,144.475,402.752,152,416,152Zm15.012-32a37.185,37.185,0,0,1-1.5,5.191C425.876,134.88,420.059,136,416,136c-4,0-9.744-1.088-13.39-10.5a36.678,36.678,0,0,1-1.621-5.5ZM320,152c25.312,0,32-26.165,32-40a8,8,0,0,0-8-8H296a8,8,0,0,0-8,8,59.643,59.643,0,0,0,3.509,18.809C296.634,144.475,306.752,152,320,152Zm15.012-32a37.185,37.185,0,0,1-1.5,5.191C329.876,134.88,324.059,136,320,136c-4,0-9.744-1.088-13.39-10.5a36.678,36.678,0,0,1-1.621-5.5Zm6.017,48.572c15.937-6.374,19.2-10.911,19.816-12.15a8,8,0,0,1,14.31,0c.62,1.239,3.879,5.776,19.816,12.15a8,8,0,1,1-5.942,14.856c-9.254-3.7-16.172-7.431-21.029-11.383-4.857,3.952-11.775,7.682-21.029,11.383a8,8,0,1,1-5.942-14.856Z" style="fill:url(#linear-gradient)"/></svg>
